<?xml version="1.0" encoding="UTF-8" standalone="no"?>
<svg width="268.111mm" height="183.444mm"
 viewBox="0 0 760 520"
 xmlns="http://www.w3.org/2000/svg" xmlns:xlink="http://www.w3.org/1999/xlink" version="1.2" baseProfile="tiny">
<title>Qt SVG Document</title>
<desc>Generated with Qt</desc>
<defs>
</defs>
<g fill="none" stroke="black" stroke-width="1" fill-rule="evenodd" stroke-linecap="square" stroke-linejoin="bevel" >

<g fill="#ffffff" fill-opacity="1" stroke="none" transform="matrix(1,0,0,1,0,0)"
font-family="Arial" font-size="24" font-weight="700" font-style="normal" 
>
<rect x="0" y="0" width="760" height="520"/>
</g>

<g fill="none" stroke="#000000" stroke-opacity="1" stroke-width="2" stroke-linecap="square" stroke-linejoin="bevel" transform="matrix(1,0,0,1,0,0)"
font-family="Arial" font-size="24" font-weight="700" font-style="normal" 
>
<circle cx="400.5" cy="127.5" r="41.5"/>
<circle cx="336" cy="354" r="33"/>
</g>

<g fill="none" stroke="#000000" stroke-opacity="1" stroke-width="2" stroke-linecap="square" stroke-linejoin="bevel" transform="matrix(1,0,0,1,0,0)"
font-family="Arial" font-size="24" font-weight="700" font-style="normal" 
>
<polyline fill="none" vector-effect="none" points="443,186 472,120 " />
</g>

<g fill="none" stroke="#000000" stroke-opacity="1" stroke-width="2" stroke-linecap="square" stroke-linejoin="bevel" transform="matrix(1,0,0,1,0,0)"
font-family="Arial" font-size="24" font-weight="700" font-style="normal" 
>
<polyline fill="none" vector-effect="none" points="443,186 371,193 " />
</g>

<g fill="none" stroke="#000000" stroke-opacity="1" stroke-width="2" stroke-linecap="square" stroke-linejoin="bevel" transform="matrix(1,0,0,1,0,0)"
font-family="Arial" font-size="24" font-weight="700" font-style="normal" 
>
<polyline fill="none" vector-effect="none" points="443,186 485,244 " />
</g>

<g fill="none" stroke="#000000" stroke-opacity="1" stroke-width="2" stroke-linecap="square" stroke-linejoin="bevel" transform="matrix(1,0,0,1,0,0)"
font-family="Arial" font-size="24" font-weight="700" font-style="normal" 
>
<polyline fill="none" vector-effect="none" points="472,120 430,61 " />
</g>

<g fill="none" stroke="#000000" stroke-opacity="1" stroke-width="2" stroke-linecap="square" stroke-linejoin="bevel" transform="matrix(1,0,0,1,0,0)"
font-family="Arial" font-size="24" font-weight="700" font-style="normal" 
>
<polyline fill="none" vector-effect="none" points="430,61 358,69 " />
</g>

<g fill="none" stroke="#000000" stroke-opacity="1" stroke-width="2" stroke-linecap="square" stroke-linejoin="bevel" transform="matrix(1,0,0,1,0,0)"
font-family="Arial" font-size="24" font-weight="700" font-style="normal" 
>
<polyline fill="none" vector-effect="none" points="358,69 329,136 " />
</g>

<g fill="none" stroke="#000000" stroke-opacity="1" stroke-width="2" stroke-linecap="square" stroke-linejoin="bevel" transform="matrix(1,0,0,1,0,0)"
font-family="Arial" font-size="24" font-weight="700" font-style="normal" 
>
<polyline fill="none" vector-effect="none" points="329,136 371,193 " />
</g>

<g fill="none" stroke="#000000" stroke-opacity="1" stroke-width="2" stroke-linecap="square" stroke-linejoin="bevel" transform="matrix(1,0,0,1,0,0)"
font-family="Arial" font-size="24" font-weight="700" font-style="normal" 
>
<polyline fill="none" vector-effect="none" points="580,313 521,356 " />
</g>

<g fill="none" stroke="#000000" stroke-opacity="1" stroke-width="2" stroke-linecap="square" stroke-linejoin="bevel" transform="matrix(1,0,0,1,0,0)"
font-family="Arial" font-size="24" font-weight="700" font-style="normal" 
>
<polyline fill="none" vector-effect="none" points="580,313 649,335 " />
</g>

<g fill="none" stroke="#000000" stroke-opacity="1" stroke-width="2" stroke-linecap="square" stroke-linejoin="bevel" transform="matrix(1,0,0,1,0,0)"
font-family="Arial" font-size="24" font-weight="700" font-style="normal" 
>
<polyline fill="none" vector-effect="none" points="578,313 555,245 " />
<polyline fill="none" vector-effect="none" points="582,312 559,244 " />
</g>

<g fill="none" stroke="#000000" stroke-opacity="1" stroke-width="2" stroke-linecap="square" stroke-linejoin="bevel" transform="matrix(1,0,0,1,0,0)"
font-family="Arial" font-size="24" font-weight="700" font-style="normal" 
>
<polyline fill="none" vector-effect="none" points="520,357 462,314 " />
<polyline fill="none" vector-effect="none" points="523,354 465,311 " />
</g>

<g fill="none" stroke="#000000" stroke-opacity="1" stroke-width="2" stroke-linecap="square" stroke-linejoin="bevel" transform="matrix(1,0,0,1,0,0)"
font-family="Arial" font-size="24" font-weight="700" font-style="normal" 
>
<polyline fill="none" vector-effect="none" points="464,313 394,335 " />
</g>

<g fill="none" stroke="#000000" stroke-opacity="1" stroke-width="2" stroke-linecap="square" stroke-linejoin="bevel" transform="matrix(1,0,0,1,0,0)"
font-family="Arial" font-size="24" font-weight="700" font-style="normal" 
>
<polyline fill="none" vector-effect="none" points="464,313 485,244 " />
</g>

<g fill="none" stroke="#000000" stroke-opacity="1" stroke-width="2" stroke-linecap="square" stroke-linejoin="bevel" transform="matrix(1,0,0,1,0,0)"
font-family="Arial" font-size="24" font-weight="700" font-style="normal" 
>
<polyline fill="none" vector-effect="none" points="394,335 372,404 " />
</g>

<g fill="none" stroke="#000000" stroke-opacity="1" stroke-width="2" stroke-linecap="square" stroke-linejoin="bevel" transform="matrix(1,0,0,1,0,0)"
font-family="Arial" font-size="24" font-weight="700" font-style="normal" 
>
<polyline fill="none" vector-effect="none" points="394,335 336,293 " />
</g>

<g fill="none" stroke="#000000" stroke-opacity="1" stroke-width="2" stroke-linecap="square" stroke-linejoin="bevel" transform="matrix(1,0,0,1,0,0)"
font-family="Arial" font-size="24" font-weight="700" font-style="normal" 
>
<polyline fill="none" vector-effect="none" points="372,404 299,404 " />
</g>

<g fill="none" stroke="#000000" stroke-opacity="1" stroke-width="2" stroke-linecap="square" stroke-linejoin="bevel" transform="matrix(1,0,0,1,0,0)"
font-family="Arial" font-size="24" font-weight="700" font-style="normal" 
>
<polyline fill="none" vector-effect="none" points="299,404 277,335 " />
</g>

<g fill="none" stroke="#000000" stroke-opacity="1" stroke-width="2" stroke-linecap="square" stroke-linejoin="bevel" transform="matrix(1,0,0,1,0,0)"
font-family="Arial" font-size="24" font-weight="700" font-style="normal" 
>
<polyline fill="none" vector-effect="none" points="277,335 336,293 " />
</g>

<g fill="none" stroke="#000000" stroke-opacity="1" stroke-width="2" stroke-linecap="square" stroke-linejoin="bevel" transform="matrix(1,0,0,1,0,0)"
font-family="Arial" font-size="24" font-weight="700" font-style="normal" 
>
<polyline fill="none" vector-effect="none" points="485,244 557,244 " />
</g>

<g fill="none" stroke="#000000" stroke-opacity="1" stroke-dasharray="8,4" stroke-dashoffset="0" stroke-width="2" stroke-linecap="square" stroke-linejoin="bevel" transform="matrix(1,0,0,1,0,0)"
font-family="Arial" font-size="24" font-weight="700" font-style="normal" 
>
<polyline fill="none" vector-effect="none" points="196,420 336,354 " />
</g>

<g fill="none" stroke="#000000" stroke-opacity="1" stroke-dasharray="8,4" stroke-dashoffset="0" stroke-width="2" stroke-linecap="square" stroke-linejoin="bevel" transform="matrix(1,0,0,1,0,0)"
font-family="Arial" font-size="24" font-weight="700" font-style="normal" 
>
<polyline fill="none" vector-effect="none" points="196,420 111,459 " />
</g>

<g fill="#ffffff" fill-opacity="1" stroke="#ffffff" stroke-opacity="1" stroke-width="1" stroke-linecap="square" stroke-linejoin="bevel" transform="matrix(1,0,0,1,0,0)"
font-family="Arial" font-size="24" font-weight="700" font-style="normal" 
>
</g>

<g fill="#ffffff" fill-opacity="1" stroke="none" transform="matrix(1,0,0,1,0,0)"
font-family="Arial" font-size="24" font-weight="700" font-style="normal" 
>
<rect x="641" y="322" width="17" height="27"/>
</g>

<g fill="#ffffff" fill-opacity="1" stroke="#ffffff" stroke-opacity="1" stroke-width="1" stroke-linecap="square" stroke-linejoin="bevel" transform="matrix(1,0,0,1,0,0)"
font-family="Arial" font-size="24" font-weight="700" font-style="normal" 
>
<text fill="#ffffff" fill-opacity="1" stroke="none" xml:space="preserve" x="641" y="344" font-family="Arial" font-size="24" font-weight="700" font-style="normal" 
 >C</text>
</g>

<g fill="#ffffff" fill-opacity="1" stroke="none" transform="matrix(1,0,0,1,0,0)"
font-family="Arial" font-size="24" font-weight="700" font-style="normal" 
>
<rect x="657" y="322" width="17" height="27"/>
</g>

<g fill="#ffffff" fill-opacity="1" stroke="#ffffff" stroke-opacity="1" stroke-width="1" stroke-linecap="square" stroke-linejoin="bevel" transform="matrix(1,0,0,1,0,0)"
font-family="Arial" font-size="24" font-weight="700" font-style="normal" 
>
<text fill="#ffffff" fill-opacity="1" stroke="none" xml:space="preserve" x="657" y="344" font-family="Arial" font-size="24" font-weight="700" font-style="normal" 
 >H</text>
</g>

<g fill="#ffffff" fill-opacity="1" stroke="#ffffff" stroke-opacity="1" stroke-width="1" stroke-linecap="square" stroke-linejoin="bevel" transform="matrix(1,0,0,1,0,0)"
font-family="Arial" font-size="22" font-weight="400" font-style="normal" 
>
</g>

<g fill="#ffffff" fill-opacity="1" stroke="none" transform="matrix(1,0,0,1,0,0)"
font-family="Arial" font-size="22" font-weight="400" font-style="normal" 
>
<rect x="673" y="335" width="12" height="25"/>
</g>

<g fill="#ffffff" fill-opacity="1" stroke="#ffffff" stroke-opacity="1" stroke-width="1" stroke-linecap="square" stroke-linejoin="bevel" transform="matrix(1,0,0,1,0,0)"
font-family="Arial" font-size="22" font-weight="400" font-style="normal" 
>
<text fill="#ffffff" fill-opacity="1" stroke="none" xml:space="preserve" x="673" y="355" font-family="Arial" font-size="22" font-weight="400" font-style="normal" 
 >3</text>
</g>

<g fill="#000000" fill-opacity="0" stroke="#000000" stroke-opacity="1" stroke-width="1" stroke-linecap="square" stroke-linejoin="bevel" transform="matrix(1,0,0,1,0,0)"
font-family="Arial" font-size="24" font-weight="700" font-style="normal" 
>
</g>

<g fill="#ffffff" fill-opacity="1" stroke="none" transform="matrix(1,0,0,1,0,0)"
font-family="Arial" font-size="24" font-weight="700" font-style="normal" 
>
<rect x="641" y="322" width="17" height="27"/>
</g>

<g fill="#000000" fill-opacity="0" stroke="#000000" stroke-opacity="1" stroke-width="1" stroke-linecap="square" stroke-linejoin="bevel" transform="matrix(1,0,0,1,0,0)"
font-family="Arial" font-size="24" font-weight="700" font-style="normal" 
>
<text fill="#000000" fill-opacity="1" stroke="none" xml:space="preserve" x="641" y="344" font-family="Arial" font-size="24" font-weight="700" font-style="normal" 
 >C</text>
<text fill="#000000" fill-opacity="1" stroke="none" xml:space="preserve" x="657" y="344" font-family="Arial" font-size="24" font-weight="700" font-style="normal" 
 >H</text>
</g>

<g fill="#000000" fill-opacity="0" stroke="#000000" stroke-opacity="1" stroke-width="1" stroke-linecap="square" stroke-linejoin="bevel" transform="matrix(1,0,0,1,0,0)"
font-family="Arial" font-size="22" font-weight="400" font-style="normal" 
>
<text fill="#000000" fill-opacity="1" stroke="none" xml:space="preserve" x="673" y="355" font-family="Arial" font-size="22" font-weight="400" font-style="normal" 
 >3</text>
</g>

<g fill="#ffffff" fill-opacity="1" stroke="#ffffff" stroke-opacity="1" stroke-width="1" stroke-linecap="square" stroke-linejoin="bevel" transform="matrix(1,0,0,1,0,0)"
font-family="Arial" font-size="24" font-weight="700" font-style="normal" 
>
</g>

<g fill="#ffffff" fill-opacity="1" stroke="none" transform="matrix(1,0,0,1,0,0)"
font-family="Arial" font-size="24" font-weight="700" font-style="normal" 
>
<rect x="363" y="180" width="17" height="27"/>
</g>

<g fill="#ffffff" fill-opacity="1" stroke="#ffffff" stroke-opacity="1" stroke-width="1" stroke-linecap="square" stroke-linejoin="bevel" transform="matrix(1,0,0,1,0,0)"
font-family="Arial" font-size="24" font-weight="700" font-style="normal" 
>
<text fill="#ffffff" fill-opacity="1" stroke="none" xml:space="preserve" x="363" y="202" font-family="Arial" font-size="24" font-weight="700" font-style="normal" 
 >N</text>
</g>

<g fill="#000000" fill-opacity="0" stroke="#4040ff" stroke-opacity="1" stroke-width="1" stroke-linecap="square" stroke-linejoin="bevel" transform="matrix(1,0,0,1,0,0)"
font-family="Arial" font-size="24" font-weight="700" font-style="normal" 
>
</g>

<g fill="#ffffff" fill-opacity="1" stroke="none" transform="matrix(1,0,0,1,0,0)"
font-family="Arial" font-size="24" font-weight="700" font-style="normal" 
>
<rect x="363" y="180" width="17" height="27"/>
</g>

<g fill="#000000" fill-opacity="0" stroke="#4040ff" stroke-opacity="1" stroke-width="1" stroke-linecap="square" stroke-linejoin="bevel" transform="matrix(1,0,0,1,0,0)"
font-family="Arial" font-size="24" font-weight="700" font-style="normal" 
>
<text fill="#4040ff" fill-opacity="1" stroke="none" xml:space="preserve" x="363" y="202" font-family="Arial" font-size="24" font-weight="700" font-style="normal" 
 >N</text>
</g>

<g fill="#ffffff" fill-opacity="1" stroke="#ffffff" stroke-opacity="1" stroke-width="1" stroke-linecap="square" stroke-linejoin="bevel" transform="matrix(1,0,0,1,0,0)"
font-family="Arial" font-size="24" font-weight="700" font-style="normal" 
>
</g>

<g fill="#ffffff" fill-opacity="1" stroke="none" transform="matrix(1,0,0,1,0,0)"
font-family="Arial" font-size="24" font-weight="700" font-style="normal" 
>
<rect x="477" y="231" width="17" height="27"/>
</g>

<g fill="#ffffff" fill-opacity="1" stroke="#ffffff" stroke-opacity="1" stroke-width="1" stroke-linecap="square" stroke-linejoin="bevel" transform="matrix(1,0,0,1,0,0)"
font-family="Arial" font-size="24" font-weight="700" font-style="normal" 
>
<text fill="#ffffff" fill-opacity="1" stroke="none" xml:space="preserve" x="477" y="253" font-family="Arial" font-size="24" font-weight="700" font-style="normal" 
 >N</text>
</g>

<g fill="#000000" fill-opacity="0" stroke="#4040ff" stroke-opacity="1" stroke-width="1" stroke-linecap="square" stroke-linejoin="bevel" transform="matrix(1,0,0,1,0,0)"
font-family="Arial" font-size="24" font-weight="700" font-style="normal" 
>
</g>

<g fill="#ffffff" fill-opacity="1" stroke="none" transform="matrix(1,0,0,1,0,0)"
font-family="Arial" font-size="24" font-weight="700" font-style="normal" 
>
<rect x="477" y="231" width="17" height="27"/>
</g>

<g fill="#000000" fill-opacity="0" stroke="#4040ff" stroke-opacity="1" stroke-width="1" stroke-linecap="square" stroke-linejoin="bevel" transform="matrix(1,0,0,1,0,0)"
font-family="Arial" font-size="24" font-weight="700" font-style="normal" 
>
<text fill="#4040ff" fill-opacity="1" stroke="none" xml:space="preserve" x="477" y="253" font-family="Arial" font-size="24" font-weight="700" font-style="normal" 
 >N</text>
</g>

<g fill="#ffffff" fill-opacity="1" stroke="#ffffff" stroke-opacity="1" stroke-width="1" stroke-linecap="square" stroke-linejoin="bevel" transform="matrix(1,0,0,1,0,0)"
font-family="Arial" font-size="24" font-weight="700" font-style="normal" 
>
</g>

<g fill="#ffffff" fill-opacity="1" stroke="none" transform="matrix(1,0,0,1,0,0)"
font-family="Arial" font-size="24" font-weight="700" font-style="normal" 
>
<rect x="549" y="231" width="17" height="27"/>
</g>

<g fill="#ffffff" fill-opacity="1" stroke="#ffffff" stroke-opacity="1" stroke-width="1" stroke-linecap="square" stroke-linejoin="bevel" transform="matrix(1,0,0,1,0,0)"
font-family="Arial" font-size="24" font-weight="700" font-style="normal" 
>
<text fill="#ffffff" fill-opacity="1" stroke="none" xml:space="preserve" x="549" y="253" font-family="Arial" font-size="24" font-weight="700" font-style="normal" 
 >N</text>
</g>

<g fill="#000000" fill-opacity="0" stroke="#4040ff" stroke-opacity="1" stroke-width="1" stroke-linecap="square" stroke-linejoin="bevel" transform="matrix(1,0,0,1,0,0)"
font-family="Arial" font-size="24" font-weight="700" font-style="normal" 
>
</g>

<g fill="#ffffff" fill-opacity="1" stroke="none" transform="matrix(1,0,0,1,0,0)"
font-family="Arial" font-size="24" font-weight="700" font-style="normal" 
>
<rect x="549" y="231" width="17" height="27"/>
</g>

<g fill="#000000" fill-opacity="0" stroke="#4040ff" stroke-opacity="1" stroke-width="1" stroke-linecap="square" stroke-linejoin="bevel" transform="matrix(1,0,0,1,0,0)"
font-family="Arial" font-size="24" font-weight="700" font-style="normal" 
>
<text fill="#4040ff" fill-opacity="1" stroke="none" xml:space="preserve" x="549" y="253" font-family="Arial" font-size="24" font-weight="700" font-style="normal" 
 >N</text>
</g>

<g fill="#ffffff" fill-opacity="1" stroke="#ffffff" stroke-opacity="1" stroke-width="1" stroke-linecap="square" stroke-linejoin="bevel" transform="matrix(1,0,0,1,0,0)"
font-family="Arial" font-size="24" font-weight="700" font-style="normal" 
>
</g>

<g fill="#ffffff" fill-opacity="1" stroke="none" transform="matrix(1,0,0,1,0,0)"
font-family="Arial" font-size="24" font-weight="700" font-style="normal" 
>
<rect x="183" y="407" width="28" height="27"/>
</g>

<g fill="#ffffff" fill-opacity="1" stroke="#ffffff" stroke-opacity="1" stroke-width="1" stroke-linecap="square" stroke-linejoin="bevel" transform="matrix(1,0,0,1,0,0)"
font-family="Arial" font-size="24" font-weight="700" font-style="normal" 
>
<text fill="#ffffff" fill-opacity="1" stroke="none" xml:space="preserve" x="183" y="429" font-family="Arial" font-size="24" font-weight="700" font-style="normal" 
 >Fe</text>
</g>

<g fill="#000000" fill-opacity="0" stroke="#ffa600" stroke-opacity="1" stroke-width="1" stroke-linecap="square" stroke-linejoin="bevel" transform="matrix(1,0,0,1,0,0)"
font-family="Arial" font-size="24" font-weight="700" font-style="normal" 
>
</g>

<g fill="#ffffff" fill-opacity="1" stroke="none" transform="matrix(1,0,0,1,0,0)"
font-family="Arial" font-size="24" font-weight="700" font-style="normal" 
>
<rect x="183" y="407" width="28" height="27"/>
</g>

<g fill="#000000" fill-opacity="0" stroke="#ffa600" stroke-opacity="1" stroke-width="1" stroke-linecap="square" stroke-linejoin="bevel" transform="matrix(1,0,0,1,0,0)"
font-family="Arial" font-size="24" font-weight="700" font-style="normal" 
>
<text fill="#ffa600" fill-opacity="1" stroke="none" xml:space="preserve" x="183" y="429" font-family="Arial" font-size="24" font-weight="700" font-style="normal" 
 >Fe</text>
</g>

<g fill="#ffffff" fill-opacity="1" stroke="none" transform="matrix(1,0,0,1,0,0)"
font-family="Arial" font-size="22" font-weight="400" font-style="normal" 
>
<rect x="90" y="441" width="42" height="36"/>
</g>

<g fill="#ffffff" fill-opacity="1" stroke="#ffffff" stroke-opacity="1" stroke-width="1" stroke-linecap="square" stroke-linejoin="bevel" transform="matrix(1,0,0,1,0,0)"
font-family="Arial" font-size="24" font-weight="700" font-style="normal" 
>
<text fill="#ffffff" fill-opacity="1" stroke="none" xml:space="preserve" x="90" y="471" font-family="Arial" font-size="24" font-weight="700" font-style="normal" 
 >Cp</text>
</g>

<g fill="#ffffff" fill-opacity="1" stroke="none" transform="matrix(1,0,0,1,0,0)"
font-family="Arial" font-size="22" font-weight="400" font-style="normal" 
>
<rect x="90" y="441" width="42" height="36"/>
</g>

<g fill="#000000" fill-opacity="0" stroke="#000000" stroke-opacity="1" stroke-width="1" stroke-linecap="square" stroke-linejoin="bevel" transform="matrix(1,0,0,1,0,0)"
font-family="Arial" font-size="24" font-weight="700" font-style="normal" 
>
<text fill="#000000" fill-opacity="1" stroke="none" xml:space="preserve" x="90" y="471" font-family="Arial" font-size="24" font-weight="700" font-style="normal" 
 >Cp</text>
</g>
</g>
</svg>
