<?xml version="1.0" encoding="UTF-8"?>
<svg id="_图层_1" xmlns="http://www.w3.org/2000/svg" version="1.1" xmlns:xlink="http://www.w3.org/1999/xlink" viewBox="0 0 504 467.7">
  <!-- Generator: Adobe Illustrator 29.1.0, SVG Export Plug-In . SVG Version: 2.1.0 Build 142)  -->
  <defs>
    <style>
      .st0, .st1, .st2, .st3, .st4, .st5, .st6, .st7, .st8, .st9, .st10, .st11, .st12, .st13, .st14, .st15, .st16, .st17, .st18, .st19, .st20, .st21, .st22, .st23, .st24, .st25, .st26, .st27, .st28, .st29, .st30, .st31, .st32, .st33, .st34 {
        isolation: isolate;
      }

      .st0, .st1, .st2, .st3, .st4, .st5, .st6, .st7, .st9, .st11, .st13, .st16, .st19, .st20, .st21, .st23, .st24, .st25, .st28, .st29, .st30, .st31, .st32 {
        font-family: Arial-BoldMT, Arial;
        font-weight: 700;
      }

      .st0, .st5, .st20 {
        font-size: 6.4px;
      }

      .st0, .st8, .st35, .st26, .st28, .st36 {
        fill: #7057a8;
      }

      .st37 {
        clip-path: url(#clippath-51);
      }

      .st38 {
        clip-path: url(#clippath-34);
      }

      .st1, .st3, .st11, .st14, .st25 {
        font-size: 5.4px;
      }

      .st1, .st6, .st9, .st39, .st16, .st18, .st21 {
        fill: #20262d;
      }

      .st40 {
        stroke: #326987;
      }

      .st40, .st41, .st42, .st43, .st44, .st45, .st46, .st47, .st48, .st49, .st50, .st39, .st51, .st52, .st53, .st54, .st55, .st36, .st56 {
        stroke-linejoin: round;
      }

      .st40, .st42, .st43, .st46, .st57, .st47, .st58, .st48, .st49, .st50, .st51, .st52, .st59, .st53, .st54, .st55 {
        fill: none;
      }

      .st40, .st42, .st47, .st58, .st48, .st50, .st51 {
        stroke-linecap: square;
      }

      .st60, .st2, .st25 {
        fill: #439ba7;
      }

      .st61 {
        clip-path: url(#clippath-38);
      }

      .st62 {
        clip-path: url(#clippath-21);
      }

      .st63 {
        clip-path: url(#clippath-6);
      }

      .st64 {
        clip-path: url(#clippath-7);
      }

      .st65 {
        clip-path: url(#clippath-17);
      }

      .st41, .st45, .st51, .st54, .st36, .st56 {
        stroke-width: .6px;
      }

      .st41, .st45, .st36, .st56 {
        stroke: #fff;
      }

      .st41, .st11, .st66, .st20, .st23, .st30 {
        fill: #326987;
      }

      .st67 {
        clip-path: url(#clippath-31);
      }

      .st42, .st44, .st47, .st51, .st52, .st53 {
        stroke: #d7dee2;
      }

      .st68 {
        clip-path: url(#clippath-15);
      }

      .st69 {
        clip-path: url(#clippath-33);
      }

      .st70 {
        clip-path: url(#clippath-61);
      }

      .st43 {
        stroke-width: 1.4px;
      }

      .st43, .st44, .st49, .st53, .st54, .st55 {
        stroke-linecap: round;
      }

      .st43, .st46, .st54 {
        stroke: #dd7a19;
      }

      .st71 {
        clip-path: url(#clippath-18);
      }

      .st72 {
        clip-path: url(#clippath-47);
      }

      .st73 {
        clip-path: url(#clippath-4);
      }

      .st2, .st21, .st24, .st30 {
        font-size: 7.1px;
      }

      .st74 {
        clip-path: url(#clippath-22);
      }

      .st75 {
        clip-path: url(#clippath-23);
      }

      .st44 {
        fill: #d7dee2;
      }

      .st44, .st8, .st39, .st59, .st53 {
        stroke-width: .8px;
      }

      .st3, .st4, .st24, .st76 {
        fill: #21788a;
      }

      .st4 {
        font-size: 6.1px;
      }

      .st77 {
        clip-path: url(#clippath-54);
      }

      .st78 {
        clip-path: url(#clippath-66);
      }

      .st45, .st5, .st12, .st79, .st27, .st31 {
        fill: #dd7a19;
      }

      .st80 {
        clip-path: url(#clippath-9);
      }

      .st81 {
        clip-path: url(#clippath-10);
      }

      .st82 {
        clip-path: url(#clippath-42);
      }

      .st6 {
        font-size: 5.7px;
      }

      .st83 {
        clip-path: url(#clippath-59);
      }

      .st84, .st7, .st13, .st19, .st29, .st32 {
        fill: #fff;
      }

      .st7, .st27 {
        font-size: 4.8px;
      }

      .st85 {
        clip-path: url(#clippath-43);
      }

      .st8 {
        opacity: .1;
      }

      .st8, .st49, .st59 {
        stroke: #7057a8;
      }

      .st86 {
        clip-path: url(#clippath-64);
      }

      .st87 {
        clip-path: url(#clippath-25);
      }

      .st9 {
        font-size: 9px;
      }

      .st88 {
        clip-path: url(#clippath-27);
      }

      .st46 {
        stroke-dasharray: 2.5 1.7;
        stroke-width: .9px;
      }

      .st89 {
        clip-path: url(#clippath-60);
      }

      .st90 {
        clip-path: url(#clippath-11);
      }

      .st91 {
        clip-path: url(#clippath-57);
      }

      .st92 {
        clip-path: url(#clippath-36);
      }

      .st47, .st58 {
        stroke-width: .7px;
      }

      .st93 {
        fill: #eef3f5;
      }

      .st10, .st12, .st14, .st17, .st18, .st22, .st26, .st27, .st33, .st34 {
        font-family: ArialMT, Arial;
      }

      .st10, .st14, .st17, .st94, .st34 {
        fill: #65717a;
      }

      .st10, .st23, .st28, .st31 {
        font-size: 5.3px;
      }

      .st95 {
        clip-path: url(#clippath-35);
      }

      .st96 {
        clip-path: url(#clippath-48);
      }

      .st97 {
        clip-path: url(#clippath-28);
      }

      .st12, .st29 {
        font-size: 5px;
      }

      .st58, .st39 {
        stroke: #20262d;
      }

      .st48 {
        stroke: #21788a;
      }

      .st98 {
        clip-path: url(#clippath-1);
      }

      .st99 {
        clip-path: url(#clippath-56);
      }

      .st13 {
        font-size: 4.5px;
      }

      .st49 {
        stroke-width: 1.2px;
      }

      .st100 {
        clip-path: url(#clippath-45);
      }

      .st101 {
        clip-path: url(#clippath-46);
      }

      .st102 {
        clip-path: url(#clippath-40);
      }

      .st50 {
        stroke: #439ba7;
      }

      .st103 {
        clip-path: url(#clippath-5);
      }

      .st104 {
        clip-path: url(#clippath-20);
      }

      .st105 {
        clip-path: url(#clippath-8);
      }

      .st16 {
        font-size: 7.8px;
      }

      .st106 {
        clip-path: url(#clippath-52);
      }

      .st107 {
        clip-path: url(#clippath-41);
      }

      .st108 {
        clip-path: url(#clippath-67);
      }

      .st109 {
        clip-path: url(#clippath-3);
      }

      .st110 {
        fill: #c99726;
      }

      .st111 {
        clip-path: url(#clippath-26);
      }

      .st17 {
        font-size: 5.2px;
      }

      .st18 {
        font-size: 6px;
      }

      .st19, .st34 {
        font-size: 4.9px;
      }

      .st52 {
        stroke-width: 1.1px;
      }

      .st112 {
        clip-path: url(#clippath-12);
      }

      .st113 {
        clip-path: url(#clippath-50);
      }

      .st114 {
        clip-path: url(#clippath-14);
      }

      .st115 {
        clip-path: url(#clippath-30);
      }

      .st116 {
        clip-path: url(#clippath-19);
      }

      .st22 {
        font-size: 4.1px;
      }

      .st22, .st56, .st33 {
        fill: #438a5e;
      }

      .st117 {
        clip-path: url(#clippath-32);
      }

      .st118 {
        clip-path: url(#clippath-55);
      }

      .st26, .st33 {
        font-size: 5.5px;
      }

      .st119 {
        clip-path: url(#clippath-53);
      }

      .st120 {
        clip-path: url(#clippath-39);
      }

      .st55 {
        stroke: #65717a;
      }

      .st121 {
        clip-path: url(#clippath-16);
      }

      .st122 {
        clip-path: url(#clippath-2);
      }

      .st123 {
        clip-path: url(#clippath-29);
      }

      .st124 {
        clip-path: url(#clippath-49);
      }

      .st125 {
        clip-path: url(#clippath-37);
      }

      .st126 {
        clip-path: url(#clippath-58);
      }

      .st127 {
        clip-path: url(#clippath-13);
      }

      .st128 {
        clip-path: url(#clippath-63);
      }

      .st32 {
        font-size: 4.7px;
      }

      .st129 {
        clip-path: url(#clippath-24);
      }

      .st130 {
        clip-path: url(#clippath);
      }

      .st131 {
        clip-path: url(#clippath-68);
      }

      .st132 {
        clip-path: url(#clippath-65);
      }

      .st133 {
        clip-path: url(#clippath-44);
      }

      .st134 {
        clip-path: url(#clippath-62);
      }

      .st135 {
        clip-path: url(#clippath-69);
      }
    </style>
    <clipPath id="clippath">
      <rect class="st57" x="42.8" y="16.4" width="448.6" height="132.3"/>
    </clipPath>
    <clipPath id="clippath-1">
      <rect class="st57" x="42.8" y="16.4" width="448.6" height="132.3"/>
    </clipPath>
    <clipPath id="clippath-2">
      <rect class="st57" x="42.8" y="16.4" width="448.6" height="132.3"/>
    </clipPath>
    <clipPath id="clippath-3">
      <rect class="st57" x="42.8" y="16.4" width="448.6" height="132.3"/>
    </clipPath>
    <clipPath id="clippath-4">
      <rect class="st57" x="42.8" y="16.4" width="448.6" height="132.3"/>
    </clipPath>
    <clipPath id="clippath-5">
      <rect class="st57" x="42.8" y="16.4" width="448.6" height="132.3"/>
    </clipPath>
    <clipPath id="clippath-6">
      <rect class="st57" x="42.8" y="16.4" width="448.6" height="132.3"/>
    </clipPath>
    <clipPath id="clippath-7">
      <rect class="st57" x="42.8" y="16.4" width="448.6" height="132.3"/>
    </clipPath>
    <clipPath id="clippath-8">
      <rect class="st57" x="42.8" y="16.4" width="448.6" height="132.3"/>
    </clipPath>
    <clipPath id="clippath-9">
      <rect class="st57" x="42.8" y="16.4" width="448.6" height="132.3"/>
    </clipPath>
    <clipPath id="clippath-10">
      <rect class="st57" x="42.8" y="16.4" width="448.6" height="132.3"/>
    </clipPath>
    <clipPath id="clippath-11">
      <rect class="st57" x="42.8" y="16.4" width="448.6" height="132.3"/>
    </clipPath>
    <clipPath id="clippath-12">
      <rect class="st57" x="42.8" y="16.4" width="448.6" height="132.3"/>
    </clipPath>
    <clipPath id="clippath-13">
      <rect class="st57" x="42.8" y="16.4" width="448.6" height="132.3"/>
    </clipPath>
    <clipPath id="clippath-14">
      <rect class="st57" x="42.8" y="16.4" width="448.6" height="132.3"/>
    </clipPath>
    <clipPath id="clippath-15">
      <rect class="st57" x="42.8" y="16.4" width="448.6" height="132.3"/>
    </clipPath>
    <clipPath id="clippath-16">
      <rect class="st57" x="42.8" y="16.4" width="448.6" height="132.3"/>
    </clipPath>
    <clipPath id="clippath-17">
      <rect class="st57" x="42.8" y="16.4" width="448.6" height="132.3"/>
    </clipPath>
    <clipPath id="clippath-18">
      <rect class="st57" x="42.8" y="16.4" width="448.6" height="132.3"/>
    </clipPath>
    <clipPath id="clippath-19">
      <rect class="st57" x="42.8" y="16.4" width="448.6" height="132.3"/>
    </clipPath>
    <clipPath id="clippath-20">
      <rect class="st57" x="42.8" y="16.4" width="448.6" height="132.3"/>
    </clipPath>
    <clipPath id="clippath-21">
      <rect class="st57" x="42.8" y="16.4" width="448.6" height="132.3"/>
    </clipPath>
    <clipPath id="clippath-22">
      <rect class="st57" x="42.8" y="16.4" width="448.6" height="132.3"/>
    </clipPath>
    <clipPath id="clippath-23">
      <rect class="st57" x="42.8" y="16.4" width="448.6" height="132.3"/>
    </clipPath>
    <clipPath id="clippath-24">
      <rect class="st57" x="42.8" y="16.4" width="448.6" height="132.3"/>
    </clipPath>
    <clipPath id="clippath-25">
      <rect class="st57" x="42.8" y="16.4" width="448.6" height="132.3"/>
    </clipPath>
    <clipPath id="clippath-26">
      <rect class="st57" x="42.8" y="16.4" width="448.6" height="132.3"/>
    </clipPath>
    <clipPath id="clippath-27">
      <rect class="st57" x="42.8" y="16.4" width="448.6" height="132.3"/>
    </clipPath>
    <clipPath id="clippath-28">
      <rect class="st57" x="42.8" y="16.4" width="448.6" height="132.3"/>
    </clipPath>
    <clipPath id="clippath-29">
      <rect class="st57" x="42.8" y="16.4" width="448.6" height="132.3"/>
    </clipPath>
    <clipPath id="clippath-30">
      <rect class="st57" x="42.8" y="16.4" width="448.6" height="132.3"/>
    </clipPath>
    <clipPath id="clippath-31">
      <rect class="st57" x="42.8" y="16.4" width="448.6" height="132.3"/>
    </clipPath>
    <clipPath id="clippath-32">
      <rect class="st57" x="42.8" y="16.4" width="448.6" height="132.3"/>
    </clipPath>
    <clipPath id="clippath-33">
      <rect class="st57" x="42.8" y="16.4" width="448.6" height="132.3"/>
    </clipPath>
    <clipPath id="clippath-34">
      <rect class="st57" x="42.8" y="16.4" width="448.6" height="132.3"/>
    </clipPath>
    <clipPath id="clippath-35">
      <rect class="st57" x="31.7" y="147.1" width="448.6" height="91.6"/>
    </clipPath>
    <clipPath id="clippath-36">
      <rect class="st57" x="31.7" y="147.1" width="448.6" height="91.6"/>
    </clipPath>
    <clipPath id="clippath-37">
      <rect class="st57" x="31.7" y="147.1" width="448.6" height="91.6"/>
    </clipPath>
    <clipPath id="clippath-38">
      <rect class="st57" x="31.7" y="147.1" width="448.6" height="91.6"/>
    </clipPath>
    <clipPath id="clippath-39">
      <rect class="st57" x="31.7" y="190.2" width="448.6" height="15.1"/>
    </clipPath>
    <clipPath id="clippath-40">
      <rect class="st57" x="31.7" y="190.2" width="448.6" height="15.1"/>
    </clipPath>
    <clipPath id="clippath-41">
      <rect class="st57" x="31.7" y="190.2" width="448.6" height="15.1"/>
    </clipPath>
    <clipPath id="clippath-42">
      <rect class="st57" x="31.7" y="190.2" width="448.6" height="15.1"/>
    </clipPath>
    <clipPath id="clippath-43">
      <rect class="st57" x="31.7" y="190.2" width="448.6" height="15.1"/>
    </clipPath>
    <clipPath id="clippath-44">
      <rect class="st57" x="31.7" y="214.9" width="448.6" height="16"/>
    </clipPath>
    <clipPath id="clippath-45">
      <rect class="st57" x="31.7" y="214.9" width="448.6" height="16"/>
    </clipPath>
    <clipPath id="clippath-46">
      <rect class="st57" x="31.7" y="214.9" width="448.6" height="16"/>
    </clipPath>
    <clipPath id="clippath-47">
      <rect class="st57" x="40.6" y="247.3" width="193.8" height="115.4"/>
    </clipPath>
    <clipPath id="clippath-48">
      <rect class="st57" x="40.6" y="247.3" width="193.8" height="115.4"/>
    </clipPath>
    <clipPath id="clippath-49">
      <rect class="st57" x="40.6" y="247.3" width="193.8" height="115.4"/>
    </clipPath>
    <clipPath id="clippath-50">
      <rect class="st57" x="40.6" y="247.3" width="193.8" height="115.4"/>
    </clipPath>
    <clipPath id="clippath-51">
      <rect class="st57" x="40.6" y="247.3" width="193.8" height="115.4"/>
    </clipPath>
    <clipPath id="clippath-52">
      <rect class="st57" x="40.6" y="247.3" width="193.8" height="115.4"/>
    </clipPath>
    <clipPath id="clippath-53">
      <rect class="st57" x="40.6" y="247.3" width="193.8" height="115.4"/>
    </clipPath>
    <clipPath id="clippath-54">
      <rect class="st57" x="40.6" y="247.3" width="193.8" height="115.4"/>
    </clipPath>
    <clipPath id="clippath-55">
      <rect class="st57" x="40.6" y="247.3" width="193.8" height="115.4"/>
    </clipPath>
    <clipPath id="clippath-56">
      <rect class="st57" x="40.6" y="247.3" width="193.8" height="115.4"/>
    </clipPath>
    <clipPath id="clippath-57">
      <rect class="st57" x="40.6" y="247.3" width="193.8" height="115.4"/>
    </clipPath>
    <clipPath id="clippath-58">
      <rect class="st57" x="40.6" y="247.3" width="193.8" height="115.4"/>
    </clipPath>
    <clipPath id="clippath-59">
      <rect class="st57" x="40.6" y="247.3" width="193.8" height="115.4"/>
    </clipPath>
    <clipPath id="clippath-60">
      <rect class="st57" x="314.8" y="247.3" width="175.4" height="115.4"/>
    </clipPath>
    <clipPath id="clippath-61">
      <rect class="st57" x="314.8" y="247.3" width="175.4" height="115.4"/>
    </clipPath>
    <clipPath id="clippath-62">
      <rect class="st57" x="314.8" y="247.3" width="175.4" height="115.4"/>
    </clipPath>
    <clipPath id="clippath-63">
      <rect class="st57" x="314.8" y="247.3" width="175.4" height="115.4"/>
    </clipPath>
    <clipPath id="clippath-64">
      <rect class="st57" x="314.8" y="247.3" width="175.4" height="115.4"/>
    </clipPath>
    <clipPath id="clippath-65">
      <rect class="st57" x="314.8" y="247.3" width="175.4" height="115.4"/>
    </clipPath>
    <clipPath id="clippath-66">
      <rect class="st57" x="314.8" y="247.3" width="175.4" height="115.4"/>
    </clipPath>
    <clipPath id="clippath-67">
      <rect class="st57" x="314.8" y="247.3" width="175.4" height="115.4"/>
    </clipPath>
    <clipPath id="clippath-68">
      <rect class="st57" x="314.8" y="247.3" width="175.4" height="115.4"/>
    </clipPath>
    <clipPath id="clippath-69">
      <rect class="st57" x="314.8" y="247.3" width="175.4" height="115.4"/>
    </clipPath>
  </defs>
  <g id="figure_1">
    <g id="axes_1">
      <g id="patch_2">
        <g class="st130">
          <path class="st8" d="M267.1,52.5l20.1,3.4-7.7,5.5h-24.8l-7.7-5.5,20.1-3.4Z"/>
        </g>
      </g>
      <g id="patch_3">
        <g class="st98">
          <path class="st8" d="M267.1,84.3l20.1,3.4-7.7,5.5h-24.8l-7.7-5.5,20.1-3.4Z"/>
        </g>
      </g>
      <g id="line2d_1">
        <g class="st122">
          <path class="st47" d="M192.2,115.6V40.2"/>
        </g>
      </g>
      <g id="line2d_2">
        <g class="st109">
          <path class="st47" d="M342,115.6V40.2"/>
        </g>
      </g>
      <g id="line2d_3">
        <g class="st73">
          <path class="st55" d="M96.7,73.3l20.2-15.9"/>
        </g>
      </g>
      <g id="line2d_4">
        <g class="st103">
          <path class="st55" d="M96.7,73.3l20.2,15.9"/>
        </g>
      </g>
      <g id="line2d_5">
        <g class="st63">
          <path class="st55" d="M137,73.3l-20.2-15.9"/>
        </g>
      </g>
      <g id="line2d_6">
        <g class="st64">
          <path class="st55" d="M137,73.3l-20.2,15.9"/>
        </g>
      </g>
      <g id="line2d_7">
        <g class="st105">
          <path class="st55" d="M96.7,73.3h-26.9"/>
        </g>
      </g>
      <g id="line2d_8">
        <g class="st80">
          <path class="st55" d="M137,73.3h26.9"/>
        </g>
      </g>
      <g id="patch_4">
        <g class="st81">
          <path class="st59" d="M267.1,61c3.2,0,6.3-.4,8.6-1,2.3-.7,3.5-1.6,3.5-2.5s-1.3-1.9-3.5-2.5c-2.3-.7-5.4-1-8.6-1s-6.3.4-8.6,1c-2.3.7-3.5,1.6-3.5,2.5s1.3,1.9,3.5,2.5c2.3.7,5.4,1,8.6,1h0Z"/>
        </g>
      </g>
      <g id="line2d_9">
        <g class="st90">
          <path class="st49" d="M267.1,73.3v-15.9"/>
        </g>
      </g>
      <g id="patch_5">
        <g class="st112">
          <path class="st59" d="M267.1,92.7c3.2,0,6.3-.4,8.6-1,2.3-.7,3.5-1.6,3.5-2.5s-1.3-1.9-3.5-2.5c-2.3-.7-5.4-1-8.6-1s-6.3.4-8.6,1c-2.3.7-3.5,1.6-3.5,2.5s1.3,1.9,3.5,2.5c2.3.7,5.4,1,8.6,1h0Z"/>
        </g>
      </g>
      <g id="line2d_10">
        <g class="st127">
          <path class="st49" d="M267.1,73.3v15.9"/>
        </g>
      </g>
      <g id="line2d_11">
        <g class="st114">
          <path class="st46" d="M451,93.1v-39.7"/>
        </g>
      </g>
      <g id="line2d_12">
        <g class="st68">
          <path class="st43" d="M417.4,73.3h-50.2"/>
        </g>
      </g>
      <g id="line2d_13">
        <g class="st121">
          <path class="st43" d="M417.4,73.3h50.2"/>
        </g>
      </g>
      <g id="line2d_14">
        <g class="st65">
          <path class="st55" d="M417.4,73.3l-21.5-12.6"/>
        </g>
      </g>
      <g id="line2d_15">
        <g class="st71">
          <path class="st55" d="M417.4,73.3l21.5-12.6"/>
        </g>
      </g>
      <g id="line2d_16">
        <g class="st116">
          <path class="st55" d="M417.4,73.3l-21.5,12.6"/>
        </g>
      </g>
      <g id="line2d_17">
        <g class="st104">
          <path class="st55" d="M417.4,73.3l21.5,12.6"/>
        </g>
      </g>
      <g id="text_1">
        <g class="st15">
          <text class="st9" transform="translate(22.7 13.7)"><tspan x="0" y="0">(A)</tspan></text>
        </g>
      </g>
      <g id="text_2">
        <g class="st15">
          <text class="st20" transform="translate(79.2 36.2)"><tspan x="0" y="0">MULTIMETAL / BRIDGED</tspan></text>
        </g>
      </g>
      <g id="text_3">
        <g class="st15">
          <text class="st0" transform="translate(250.1 36.2)"><tspan x="0" y="0">HAPTIC / π</tspan></text>
        </g>
      </g>
      <g id="text_4">
        <g class="st15">
          <text class="st5" transform="translate(401.9 36.2)"><tspan x="0" y="0">PERIODIC</tspan></text>
        </g>
      </g>
      <g id="text_5">
        <g class="st15">
          <text class="st33" transform="translate(125.8 55.4)"><tspan x="0" y="0">μ</tspan></text>
        </g>
      </g>
      <g id="text_6">
        <g class="st15">
          <text class="st22" transform="translate(130.8 56.7)"><tspan x="0" y="0">2</tspan></text>
        </g>
      </g>
      <g id="text_7">
        <g class="st15">
          <text class="st6" transform="translate(64 101.7)"><tspan x="0" y="0">one μ-Cl group → two metal incidences</tspan></text>
        </g>
      </g>
      <g id="text_8">
        <g class="st15">
          <text class="st10" transform="translate(79.8 111)"><tspan x="0" y="0">stored once · bridge degree = 2</tspan></text>
        </g>
      </g>
      <g id="text_9">
        <g class="st15">
          <text class="st26" transform="translate(292.7 57.4)"><tspan x="0" y="0">η⁵</tspan></text>
        </g>
      </g>
      <g id="text_10">
        <g class="st15">
          <text class="st26" transform="translate(292.7 89.2)"><tspan x="0" y="0">η⁵</tspan></text>
        </g>
      </g>
      <g id="text_11">
        <g class="st15">
          <text class="st6" transform="translate(219.2 101.7)"><tspan x="0" y="0">one Cp ring → one collective η⁵ site</tspan></text>
        </g>
      </g>
      <g id="text_12">
        <g class="st15">
          <text class="st10" transform="translate(218.8 111)"><tspan x="0" y="0">explicit members · hapticity · target metal</tspan></text>
        </g>
      </g>
      <g id="text_13">
        <g class="st15">
          <text class="st27" transform="translate(357.4 66)"><tspan x="0" y="0">τ = (0,0,0)</tspan></text>
        </g>
      </g>
      <g id="text_14">
        <g class="st15">
          <text class="st27" transform="translate(456.1 66)"><tspan x="0" y="0">τ = (0,0,1)</tspan></text>
        </g>
      </g>
      <g id="text_15">
        <g class="st15">
          <text class="st1" transform="translate(352.7 101.7)"><tspan x="0" y="0">one wrapped Cl orbit → two translated incidences</tspan></text>
        </g>
      </g>
      <g id="text_16">
        <g class="st15">
          <text class="st10" transform="translate(373.1 111)"><tspan x="0" y="0">4 Cu–N + 2 Cu–Cl → physical CN = 6</tspan></text>
        </g>
      </g>
      <g id="patch_6">
        <path class="st53" d="M267.1,120.3v4.4"/>
        <path class="st44" d="M268.4,122.1l-1.3,2.6-1.3-2.6h2.6,0Z"/>
      </g>
      <g id="text_17">
        <g class="st15">
          <text class="st4" transform="translate(151.4 134.8)"><tspan x="0" y="0">native CSD graph → metal-site nodes + donor-group objects + typed incidences</tspan></text>
        </g>
      </g>
      <g id="text_18">
        <g class="st15">
          <text class="st16" transform="translate(43.2 13.7)"><tspan x="0" y="0">Chemistry-aware construction of complex coordination records</tspan></text>
        </g>
      </g>
      <g id="PathCollection_1">
        <g class="st62">
          <path id="mf154cd49fd" class="st45" d="M96.7,80.8c2,0,3.9-.8,5.3-2.2,1.4-1.4,2.2-3.3,2.2-5.3s-.8-3.9-2.2-5.3c-1.4-1.4-3.3-2.2-5.3-2.2s-3.9.8-5.3,2.2c-1.4,1.4-2.2,3.3-2.2,5.3s.8,3.9,2.2,5.3c1.4,1.4,3.3,2.2,5.3,2.2Z"/>
        </g>
      </g>
      <g id="PathCollection_2">
        <g class="st74">
          <path id="mf154cd49fd1" class="st45" d="M137,80.8c2,0,3.9-.8,5.3-2.2,1.4-1.4,2.2-3.3,2.2-5.3s-.8-3.9-2.2-5.3-3.3-2.2-5.3-2.2-3.9.8-5.3,2.2c-1.4,1.4-2.2,3.3-2.2,5.3s.8,3.9,2.2,5.3,3.3,2.2,5.3,2.2Z"/>
        </g>
      </g>
      <g id="PathCollection_3">
        <g class="st75">
          <path id="m0b83e42a14" class="st56" d="M116.9,63.9c1.7,0,3.4-.7,4.6-1.9s1.9-2.9,1.9-4.6-.7-3.4-1.9-4.6c-1.2-1.2-2.9-1.9-4.6-1.9s-3.4.7-4.6,1.9-1.9,2.9-1.9,4.6.7,3.4,1.9,4.6c1.2,1.2,2.9,1.9,4.6,1.9Z"/>
        </g>
      </g>
      <g id="PathCollection_4">
        <g class="st129">
          <path id="m0b83e42a141" class="st56" d="M116.9,95.6c1.7,0,3.4-.7,4.6-1.9,1.2-1.2,1.9-2.9,1.9-4.6s-.7-3.4-1.9-4.6c-1.2-1.2-2.9-1.9-4.6-1.9s-3.4.7-4.6,1.9c-1.2,1.2-1.9,2.9-1.9,4.6s.7,3.4,1.9,4.6c1.2,1.2,2.9,1.9,4.6,1.9Z"/>
        </g>
      </g>
      <g id="PathCollection_5">
        <g class="st87">
          <path id="m0b83e42a142" class="st56" d="M69.8,79.8c1.7,0,3.4-.7,4.6-1.9,1.2-1.2,1.9-2.9,1.9-4.6s-.7-3.4-1.9-4.6c-1.2-1.2-2.9-1.9-4.6-1.9s-3.4.7-4.6,1.9c-1.2,1.2-1.9,2.9-1.9,4.6s.7,3.4,1.9,4.6c1.2,1.2,2.9,1.9,4.6,1.9Z"/>
        </g>
      </g>
      <g id="PathCollection_6">
        <g class="st111">
          <path id="m0b83e42a143" class="st56" d="M164,79.8c1.7,0,3.4-.7,4.6-1.9,1.2-1.2,1.9-2.9,1.9-4.6s-.7-3.4-1.9-4.6-2.9-1.9-4.6-1.9-3.4.7-4.6,1.9c-1.2,1.2-1.9,2.9-1.9,4.6s.7,3.4,1.9,4.6,2.9,1.9,4.6,1.9Z"/>
        </g>
      </g>
      <g id="PathCollection_7">
        <g class="st88">
          <path id="mbe424c2a3b" class="st45" d="M267.1,81.2c2.1,0,4.1-.8,5.6-2.3s2.3-3.5,2.3-5.6-.8-4.1-2.3-5.6-3.5-2.3-5.6-2.3-4.1.8-5.6,2.3-2.3,3.5-2.3,5.6.8,4.1,2.3,5.6,3.5,2.3,5.6,2.3Z"/>
        </g>
      </g>
      <g id="PathCollection_8">
        <g class="st97">
          <path id="m69ff558c77" class="st45" d="M417.4,81.6c2.2,0,4.3-.9,5.9-2.4s2.4-3.7,2.4-5.9-.9-4.3-2.4-5.9-3.7-2.4-5.9-2.4-4.3.9-5.9,2.4-2.4,3.7-2.4,5.9.9,4.3,2.4,5.9,3.7,2.4,5.9,2.4Z"/>
        </g>
      </g>
      <g id="PathCollection_9">
        <g class="st123">
          <path id="m077dd1b72d" class="st56" d="M367.1,80.1c1.8,0,3.6-.7,4.8-2,1.3-1.3,2-3,2-4.8s-.7-3.6-2-4.8c-1.3-1.3-3-2-4.8-2s-3.6.7-4.8,2c-1.3,1.3-2,3-2,4.8s.7,3.6,2,4.8c1.3,1.3,3,2,4.8,2Z"/>
        </g>
      </g>
      <g id="PathCollection_10">
        <g class="st115">
          <path id="m077dd1b72d1" class="st56" d="M467.6,80.1c1.8,0,3.6-.7,4.8-2,1.3-1.3,2-3,2-4.8s-.7-3.6-2-4.8c-1.3-1.3-3-2-4.8-2s-3.6.7-4.8,2c-1.3,1.3-2,3-2,4.8s.7,3.6,2,4.8c1.3,1.3,3,2,4.8,2Z"/>
        </g>
      </g>
      <g id="PathCollection_11">
        <g class="st67">
          <path id="m940c47f151" class="st41" d="M395.9,66.5c1.5,0,3-.6,4.1-1.7s1.7-2.5,1.7-4.1-.6-3-1.7-4.1-2.5-1.7-4.1-1.7-3,.6-4.1,1.7c-1.1,1.1-1.7,2.5-1.7,4.1s.6,3,1.7,4.1,2.5,1.7,4.1,1.7Z"/>
        </g>
      </g>
      <g id="PathCollection_12">
        <g class="st117">
          <path id="m940c47f1511" class="st41" d="M438.9,66.5c1.5,0,3-.6,4.1-1.7s1.7-2.5,1.7-4.1-.6-3-1.7-4.1-2.5-1.7-4.1-1.7-3,.6-4.1,1.7c-1.1,1.1-1.7,2.5-1.7,4.1s.6,3,1.7,4.1,2.5,1.7,4.1,1.7Z"/>
        </g>
      </g>
      <g id="PathCollection_13">
        <g class="st69">
          <path id="m940c47f1512" class="st41" d="M395.9,91.6c1.5,0,3-.6,4.1-1.7s1.7-2.5,1.7-4.1-.6-3-1.7-4.1-2.5-1.7-4.1-1.7-3,.6-4.1,1.7-1.7,2.5-1.7,4.1.6,3,1.7,4.1,2.5,1.7,4.1,1.7Z"/>
        </g>
      </g>
      <g id="PathCollection_14">
        <g class="st38">
          <path id="m940c47f1513" class="st41" d="M438.9,91.6c1.5,0,3-.6,4.1-1.7s1.7-2.5,1.7-4.1-.6-3-1.7-4.1-2.5-1.7-4.1-1.7-3,.6-4.1,1.7-1.7,2.5-1.7,4.1.6,3,1.7,4.1,2.5,1.7,4.1,1.7Z"/>
        </g>
      </g>
      <g id="text_19">
        <g class="st15">
          <text class="st32" transform="translate(93.5 74.5)"><tspan x="0" y="0">Cu</tspan></text>
        </g>
      </g>
      <g id="text_20">
        <g class="st15">
          <text class="st32" transform="translate(133.9 74.5)"><tspan x="0" y="0">Cu</tspan></text>
        </g>
      </g>
      <g id="text_21">
        <g class="st15">
          <text class="st13" transform="translate(114.6 58.6)"><tspan x="0" y="0">Cl</tspan></text>
        </g>
      </g>
      <g id="text_22">
        <g class="st15">
          <text class="st13" transform="translate(114.6 90.3)"><tspan x="0" y="0">Cl</tspan></text>
        </g>
      </g>
      <g id="text_23">
        <g class="st15">
          <text class="st13" transform="translate(67.5 74.4)"><tspan x="0" y="0">Cl</tspan></text>
        </g>
      </g>
      <g id="text_24">
        <g class="st15">
          <text class="st13" transform="translate(161.7 74.4)"><tspan x="0" y="0">Cl</tspan></text>
        </g>
      </g>
      <g id="text_25">
        <g class="st15">
          <text class="st7" transform="translate(264.3 74.5)"><tspan x="0" y="0">Fe</tspan></text>
        </g>
      </g>
      <g id="text_26">
        <g class="st15">
          <text class="st7" transform="translate(414.2 74.5)"><tspan x="0" y="0">Cu</tspan></text>
        </g>
      </g>
      <g id="text_27">
        <g class="st15">
          <text class="st13" transform="translate(364.9 74.4)"><tspan x="0" y="0">Cl</tspan></text>
        </g>
      </g>
      <g id="text_28">
        <g class="st15">
          <text class="st13" transform="translate(465.4 74.4)"><tspan x="0" y="0">Cl</tspan></text>
        </g>
      </g>
      <g id="text_29">
        <g class="st15">
          <text class="st32" transform="translate(394.2 61.9)"><tspan x="0" y="0">N</tspan></text>
        </g>
      </g>
      <g id="text_30">
        <g class="st15">
          <text class="st32" transform="translate(437.2 61.9)"><tspan x="0" y="0">N</tspan></text>
        </g>
      </g>
      <g id="text_31">
        <g class="st15">
          <text class="st32" transform="translate(394.2 87.1)"><tspan x="0" y="0">N</tspan></text>
        </g>
      </g>
      <g id="text_32">
        <g class="st15">
          <text class="st32" transform="translate(437.2 87.1)"><tspan x="0" y="0">N</tspan></text>
        </g>
      </g>
    </g>
    <g id="axes_2">
      <g id="line2d_18">
        <g class="st95">
          <path class="st42" d="M40.7,178.7h74"/>
        </g>
      </g>
      <g id="line2d_19">
        <g class="st92">
          <path class="st40" d="M155.1,178.7h74"/>
        </g>
      </g>
      <g id="line2d_20">
        <g class="st125">
          <path class="st50" d="M269.5,178.7h74"/>
        </g>
      </g>
      <g id="line2d_21">
        <g class="st61">
          <path class="st48" d="M383.9,178.7h74"/>
        </g>
      </g>
      <g id="text_33">
        <g class="st15">
          <text class="st9" transform="translate(19.6 147.9)"><tspan x="0" y="0">(B)</tspan></text>
        </g>
      </g>
      <g id="text_34">
        <g class="st15">
          <text class="st21" transform="translate(61.9 166.8)"><tspan x="0" y="0">1,371,757</tspan></text>
        </g>
      </g>
      <g id="text_35">
        <g class="st15">
          <text class="st17" transform="translate(59.6 175.1)"><tspan x="0" y="0">April 2025 CSD</tspan></text>
        </g>
      </g>
      <g id="patch_7">
        <path class="st53" d="M130.2,167.8h7.7"/>
        <path class="st44" d="M135.4,166.5l2.6,1.3-2.6,1.3v-2.6Z"/>
      </g>
      <g id="text_36">
        <g class="st15">
          <text class="st30" transform="translate(179.3 166.8)"><tspan x="0" y="0">783,263</tspan></text>
        </g>
      </g>
      <g id="text_37">
        <g class="st15">
          <text class="st17" transform="translate(163.8 175)"><tspan x="0" y="0">metal-containing census</tspan></text>
        </g>
      </g>
      <g id="patch_8">
        <path class="st53" d="M244.6,167.8h7.7"/>
        <path class="st44" d="M249.7,166.5l2.6,1.3-2.6,1.3v-2.6Z"/>
      </g>
      <g id="text_38">
        <g class="st15">
          <text class="st2" transform="translate(293.9 166.8)"><tspan x="0" y="0">746,511</tspan></text>
        </g>
      </g>
      <g id="text_39">
        <g class="st15">
          <text class="st17" transform="translate(291.2 175.1)"><tspan x="0" y="0">audit corpus*</tspan></text>
        </g>
      </g>
      <g id="patch_9">
        <path class="st53" d="M359,167.8h7.7"/>
        <path class="st44" d="M364.1,166.5l2.6,1.3-2.6,1.3v-2.6Z"/>
      </g>
      <g id="text_40">
        <g class="st15">
          <text class="st24" transform="translate(392.6 166.8)"><tspan x="0" y="0">746,511 / 746,511</tspan></text>
        </g>
      </g>
      <g id="text_41">
        <g class="st15">
          <text class="st17" transform="translate(386.9 175.1)"><tspan x="0" y="0">schema valid · source faithful</tspan></text>
        </g>
      </g>
      <g id="text_42">
        <g class="st15">
          <text class="st14" transform="translate(31.7 187.4)"><tspan x="0" y="0">metal-block signature</tspan></text>
        </g>
      </g>
      <g id="text_43">
        <g class="st15">
          <text class="st14" transform="translate(31.7 212.6)"><tspan x="0" y="0">mutually exclusive record classes</tspan></text>
        </g>
      </g>
      <g id="text_44">
        <g class="st15">
          <text/>
        </g>
      </g>
      <g id="text_45">
        <g class="st15">
          <text class="st16" transform="translate(38.4 147.9)"><tspan x="0" y="0">Release-wide census and predefined audit corpus</tspan></text>
        </g>
      </g>
      <g id="axes_3">
        <g id="patch_10">
          <g class="st120">
            <path class="st66" d="M31.7,203.2h329.7v-10.9H31.7v10.9Z"/>
          </g>
        </g>
        <g id="patch_11">
          <g class="st102">
            <path class="st35" d="M361.5,203.2h29.3v-10.9h-29.3v10.9Z"/>
          </g>
        </g>
        <g id="patch_12">
          <g class="st107">
            <path class="st60" d="M390.8,203.2h33v-10.9h-33v10.9Z"/>
          </g>
        </g>
        <g id="patch_13">
          <g class="st82">
            <path class="st110" d="M423.8,203.2h20.1v-10.9h-20.1v10.9Z"/>
          </g>
        </g>
        <g id="patch_14">
          <g class="st85">
            <path class="st94" d="M443.9,203.2h36.4v-10.9h-36.4v10.9Z"/>
          </g>
        </g>
        <g id="text_46">
          <g class="st15">
            <text class="st32" transform="translate(189.6 196.5)"><tspan x="0" y="0">d-only</tspan></text>
          </g>
          <g class="st15">
            <text class="st32" transform="translate(190 201.4)"><tspan x="0" y="0">73.5%</tspan></text>
          </g>
        </g>
        <g id="text_47">
          <g class="st15">
            <text class="st32" transform="translate(369.8 196.5)"><tspan x="0" y="0">f-only</tspan></text>
          </g>
          <g class="st15">
            <text class="st32" transform="translate(370.8 201.5)"><tspan x="0" y="0">6.5%</tspan></text>
          </g>
        </g>
        <g id="text_48">
          <g class="st15">
            <text class="st32" transform="translate(400.3 196.5)"><tspan x="0" y="0">p-only</tspan></text>
          </g>
          <g class="st15">
            <text class="st32" transform="translate(402 201.4)"><tspan x="0" y="0">7.4%</tspan></text>
          </g>
        </g>
        <g id="text_49">
          <g class="st15">
            <text class="st32" transform="translate(427 196.5)"><tspan x="0" y="0">s-only</tspan></text>
          </g>
          <g class="st15">
            <text class="st32" transform="translate(428.5 201.4)"><tspan x="0" y="0">4.5%</tspan></text>
          </g>
        </g>
        <g id="text_50">
          <g class="st15">
            <text class="st32" transform="translate(455.4 196.5)"><tspan x="0" y="0">mixed</tspan></text>
          </g>
          <g class="st15">
            <text class="st32" transform="translate(456.8 201.4)"><tspan x="0" y="0">8.1%</tspan></text>
          </g>
        </g>
      </g>
      <g id="axes_4">
        <g id="patch_15">
          <g class="st133">
            <path class="st66" d="M31.7,228.7h179.6v-11.5H31.7v11.5Z"/>
          </g>
        </g>
        <g id="patch_16">
          <g class="st100">
            <path class="st60" d="M211.4,228.7h177.4v-11.5h-177.4v11.5Z"/>
          </g>
        </g>
        <g id="patch_17">
          <g class="st101">
            <path class="st79" d="M388.7,228.7h91.6v-11.5h-91.6v11.5Z"/>
          </g>
        </g>
        <g id="text_51">
          <g class="st15">
            <text class="st29" transform="translate(107 221.5)"><tspan x="0" y="0">single-metal</tspan></text>
          </g>
          <g class="st15">
            <text class="st29" transform="translate(103.1 226.9)"><tspan x="0" y="0">298,932 (40.0%)</tspan></text>
          </g>
        </g>
        <g id="text_52">
          <g class="st15">
            <text class="st29" transform="translate(287.5 221.5)"><tspan x="0" y="0">multimetal</tspan></text>
          </g>
          <g class="st15">
            <text class="st29" transform="translate(281.6 226.9)"><tspan x="0" y="0">295,164 (39.5%)</tspan></text>
          </g>
        </g>
        <g id="text_53">
          <g class="st15">
            <text class="st29" transform="translate(422.7 221.5)"><tspan x="0" y="0">polymeric</tspan></text>
          </g>
          <g class="st15">
            <text class="st29" transform="translate(416 226.9)"><tspan x="0" y="0">152,415 (20.4%)</tspan></text>
          </g>
        </g>
      </g>
    </g>
    <g id="axes_5">
      <g id="patch_18">
        <path class="st84" d="M40.6,362.7h193.8v-115.4H40.6v115.4Z"/>
      </g>
      <g id="matplotlib.axis_1">
        <g id="xtick_1">
          <g id="line2d_22">
            <g class="st72">
              <path class="st51" d="M40.6,362.7v-115.4"/>
            </g>
          </g>
          <g id="line2d_23">
            <path id="mb5b8850c1d" class="st39" d="M40.6,362.7v3.5"/>
          </g>
          <g id="text_54">
            <g class="st15">
              <text class="st18" transform="translate(39 374)"><tspan x="0" y="0">0</tspan></text>
            </g>
          </g>
        </g>
        <g id="xtick_2">
          <g id="line2d_24">
            <g class="st96">
              <path class="st51" d="M126.4,362.7v-115.4"/>
            </g>
          </g>
          <g id="line2d_25">
            <path id="mb5b8850c1d1" class="st39" d="M126.4,362.7v3.5"/>
          </g>
          <g id="text_55">
            <g class="st15">
              <text class="st18" transform="translate(123.1 374)"><tspan x="0" y="0">50</tspan></text>
            </g>
          </g>
        </g>
        <g id="xtick_3">
          <g id="line2d_26">
            <g class="st124">
              <path class="st51" d="M212.2,362.7v-115.4"/>
            </g>
          </g>
          <g id="line2d_27">
            <path id="mb5b8850c1d2" class="st39" d="M212.2,362.7v3.5"/>
          </g>
          <g id="text_56">
            <g class="st15">
              <text class="st18" transform="translate(204.5 374)"><tspan x="0" y="0">100%</tspan></text>
            </g>
          </g>
        </g>
      </g>
      <g id="patch_19">
        <g class="st113">
          <path class="st93" d="M40.6,264.2h171.5v-7.5H40.6v7.5Z"/>
        </g>
      </g>
      <g id="patch_20">
        <g class="st37">
          <path class="st93" d="M40.6,285.1h171.5v-7.5H40.6v7.5Z"/>
        </g>
      </g>
      <g id="patch_21">
        <g class="st106">
          <path class="st93" d="M40.6,306h171.5v-7.5H40.6v7.5Z"/>
        </g>
      </g>
      <g id="patch_22">
        <g class="st119">
          <path class="st66" d="M40.6,264.2h170.4v-7.5H40.6v7.5Z"/>
        </g>
      </g>
      <g id="patch_23">
        <g class="st77">
          <path class="st76" d="M40.6,285.1h168.4v-7.5H40.6v7.5Z"/>
        </g>
      </g>
      <g id="patch_24">
        <g class="st118">
          <path class="st60" d="M40.6,306h169.3v-7.5H40.6v7.5Z"/>
        </g>
      </g>
      <g id="patch_25">
        <g class="st99">
          <path class="st66" d="M40.6,342.1h78.7v-9.5H40.6v9.5Z"/>
        </g>
      </g>
      <g id="patch_26">
        <g class="st91">
          <path class="st60" d="M119.3,342.1h25.9v-9.5h-25.9s0,9.5,0,9.5Z"/>
        </g>
      </g>
      <g id="patch_27">
        <g class="st126">
          <path class="st35" d="M145.2,342.1h65.8v-9.5h-65.8v9.5Z"/>
        </g>
      </g>
      <g id="patch_28">
        <g class="st83">
          <path class="st79" d="M211,342.1h1.2v-9.5h-1.2v9.5Z"/>
        </g>
      </g>
      <g id="patch_29">
        <path class="st58" d="M40.6,362.7h193.8"/>
      </g>
      <g id="text_57">
        <g class="st15">
          <text class="st9" transform="translate(22.7 242.3)"><tspan x="0" y="0">(C)</tspan></text>
        </g>
      </g>
      <g id="text_58">
        <g class="st15">
          <text class="st19" transform="translate(42.7 261.7)"><tspan x="0" y="0">entries: ≥1 structural site</tspan></text>
        </g>
      </g>
      <g id="text_59">
        <g class="st15">
          <text class="st7" transform="translate(169.5 261.7)"><tspan x="0" y="0">741,402 / 746,511</tspan></text>
        </g>
      </g>
      <g id="text_60">
        <g class="st15">
          <text class="st11" transform="translate(213.9 261.8)"><tspan x="0" y="0">99.32%</tspan></text>
        </g>
      </g>
      <g id="text_61">
        <g class="st15">
          <text class="st19" transform="translate(42.7 282.6)"><tspan x="0" y="0">entries: every site structural</tspan></text>
        </g>
      </g>
      <g id="text_62">
        <g class="st15">
          <text class="st7" transform="translate(169.5 282.6)"><tspan x="0" y="0">733,004 / 746,511</tspan></text>
        </g>
      </g>
      <g id="text_63">
        <g class="st15">
          <text class="st3" transform="translate(213.9 282.7)"><tspan x="0" y="0">98.19%</tspan></text>
        </g>
      </g>
      <g id="text_64">
        <g class="st15">
          <text class="st19" transform="translate(42.7 303.5)"><tspan x="0" y="0">metal sites: structural</tspan></text>
        </g>
      </g>
      <g id="text_65">
        <g class="st15">
          <text class="st7" transform="translate(161.2 303.5)"><tspan x="0" y="0">2,574,081 / 2,608,448</tspan></text>
        </g>
      </g>
      <g id="text_66">
        <g class="st15">
          <text class="st25" transform="translate(213.9 303.6)"><tspan x="0" y="0">98.68%</tspan></text>
        </g>
      </g>
      <g id="text_67">
        <g class="st15">
          <text class="st7" transform="translate(70.2 336.1)"><tspan x="0" y="0">resolved</tspan></text>
        </g>
        <g class="st15">
          <text class="st7" transform="translate(71.4 341.1)"><tspan x="0" y="0">342,524</tspan></text>
        </g>
      </g>
      <g id="text_68">
        <g class="st15">
          <text class="st7" transform="translate(125.1 336.1)"><tspan x="0" y="0">partial</tspan></text>
        </g>
        <g class="st15">
          <text class="st7" transform="translate(123.8 341.1)"><tspan x="0" y="0">112,519</tspan></text>
        </g>
      </g>
      <g id="text_69">
        <g class="st15">
          <text class="st7" transform="translate(165.4 336)"><tspan x="0" y="0">ambiguous</tspan></text>
        </g>
        <g class="st15">
          <text class="st7" transform="translate(169.5 341.1)"><tspan x="0" y="0">286,359</tspan></text>
        </g>
      </g>
      <g id="text_70">
        <g class="st15">
          <text class="st17" transform="translate(40.6 325.1)"><tspan x="0" y="0">mutually exclusive terminal entry outcomes</tspan></text>
        </g>
      </g>
      <g id="patch_30">
        <path class="st54" d="M193.5,346.6c5.4-2.8,10.9-5.6,16.3-8.3"/>
      </g>
      <g id="text_71">
        <g class="st15">
          <text class="st12" transform="translate(156 353.1)"><tspan x="0" y="0">audit-only 5,109 (0.68%)</tspan></text>
        </g>
      </g>
      <g id="text_72">
        <g class="st15">
          <text class="st34" transform="translate(40.6 360.2)"><tspan x="0" y="0">34,367 metal sites are retained explicitly as audit-only.</tspan></text>
        </g>
      </g>
      <g id="text_73">
        <g class="st15">
          <text class="st16" transform="translate(40.6 242.3)"><tspan x="0" y="0">Source-supported structural coverage</tspan></text>
        </g>
      </g>
    </g>
    <g id="axes_6">
      <g id="patch_31">
        <path class="st84" d="M314.8,362.7h175.4v-115.4h-175.4v115.4Z"/>
      </g>
      <g id="matplotlib.axis_3">
        <g id="xtick_4">
          <g id="line2d_28">
            <g class="st89">
              <path class="st51" d="M314.8,362.7v-115.4"/>
            </g>
          </g>
          <g id="line2d_29">
            <path id="mb5b8850c1d3" class="st39" d="M314.8,362.7v3.5"/>
          </g>
          <g id="text_74">
            <g class="st15">
              <text class="st18" transform="translate(313.2 374)"><tspan x="0" y="0">0</tspan></text>
            </g>
          </g>
        </g>
        <g id="xtick_5">
          <g id="line2d_30">
            <g class="st70">
              <path class="st51" d="M361.6,362.7v-115.4"/>
            </g>
          </g>
          <g id="line2d_31">
            <path id="mb5b8850c1d4" class="st39" d="M361.6,362.7v3.5"/>
          </g>
          <g id="text_75">
            <g class="st15">
              <text class="st18" transform="translate(358.3 374)"><tspan x="0" y="0">10</tspan></text>
            </g>
          </g>
        </g>
        <g id="xtick_6">
          <g id="line2d_32">
            <g class="st134">
              <path class="st51" d="M408.4,362.7v-115.4"/>
            </g>
          </g>
          <g id="line2d_33">
            <path id="mb5b8850c1d5" class="st39" d="M408.4,362.7v3.5"/>
          </g>
          <g id="text_76">
            <g class="st15">
              <text class="st18" transform="translate(405 374)"><tspan x="0" y="0">20</tspan></text>
            </g>
          </g>
        </g>
        <g id="xtick_7">
          <g id="line2d_34">
            <g class="st128">
              <path class="st51" d="M455.1,362.7v-115.4"/>
            </g>
          </g>
          <g id="line2d_35">
            <path id="mb5b8850c1d6" class="st39" d="M455.1,362.7v3.5"/>
          </g>
          <g id="text_77">
            <g class="st15">
              <text class="st18" transform="translate(449.1 374)"><tspan x="0" y="0">30%</tspan></text>
            </g>
          </g>
        </g>
      </g>
      <g id="matplotlib.axis_4">
        <g id="ytick_1">
          <g id="text_78">
            <g class="st15">
              <text class="st18" transform="translate(258.5 267.3)"><tspan x="0" y="0">shared donor group</tspan></text>
            </g>
          </g>
        </g>
        <g id="ytick_2">
          <g id="text_79">
            <g class="st15">
              <text class="st18" transform="translate(243.8 304.6)"><tspan x="0" y="0">resolved translation edge</tspan></text>
            </g>
          </g>
        </g>
        <g id="ytick_3">
          <g id="text_80">
            <g class="st15">
              <text class="st18" transform="translate(246.7 341.8)"><tspan x="0" y="0">confirmed haptic / π site</tspan></text>
            </g>
          </g>
        </g>
      </g>
      <g id="LineCollection_1">
        <g class="st86">
          <path class="st52" d="M314.8,265.2h133.8"/>
        </g>
        <g class="st132">
          <path class="st52" d="M314.8,302.4h80.9"/>
        </g>
        <g class="st78">
          <path class="st52" d="M314.8,339.6h71.2"/>
        </g>
      </g>
      <g id="patch_32">
        <path class="st58" d="M314.8,362.7h175.4"/>
      </g>
      <g id="text_81">
        <g class="st15">
          <text class="st9" transform="translate(297.7 242.3)"><tspan x="0" y="0">(D)</tspan></text>
        </g>
      </g>
      <g id="PathCollection_15">
        <g class="st108">
          <path id="mb19d9a8d0c" class="st41" d="M448.6,268.4c.9,0,1.7-.3,2.3-.9.6-.6.9-1.4.9-2.3s-.3-1.7-.9-2.3c-.6-.6-1.4-.9-2.3-.9s-1.7.3-2.3.9c-.6.6-.9,1.4-.9,2.3s.3,1.7.9,2.3c.6.6,1.4.9,2.3.9Z"/>
        </g>
      </g>
      <g id="PathCollection_16">
        <g class="st131">
          <path id="m712f17a2b8" class="st45" d="M395.7,299.2l-3.2,6.5h6.5l-3.2-6.5h0Z"/>
        </g>
      </g>
      <g id="PathCollection_17">
        <g class="st135">
          <path id="m0b00e094c1" class="st36" d="M382.8,342.9h6.5v-6.5h-6.5v6.5Z"/>
        </g>
      </g>
      <g id="text_82">
        <g class="st15">
          <text class="st23" transform="translate(451.2 266.6)"><tspan x="0" y="0">213,595 (28.6%)</tspan></text>
        </g>
      </g>
      <g id="text_83">
        <g class="st15">
          <text class="st31" transform="translate(398.3 303.8)"><tspan x="0" y="0">129,092 (17.3%)</tspan></text>
        </g>
      </g>
      <g id="text_84">
        <g class="st15">
          <text class="st28" transform="translate(388.6 341)"><tspan x="0" y="0">113,726 (15.2%)</tspan></text>
        </g>
      </g>
      <g id="text_85">
        <g class="st15">
          <text class="st17" transform="translate(314.8 252.5)"><tspan x="0" y="0">nonexclusive entry flags</tspan></text>
        </g>
      </g>
      <g id="text_86">
        <g class="st15">
          <text class="st34" transform="translate(314.8 382.3)"><tspan x="0" y="0">63 oversized collective-π candidates remain ambiguous; no hapticity is forced.</tspan></text>
        </g>
      </g>
      <g id="text_87">
        <g class="st15">
          <text class="st16" transform="translate(314.8 242.3)"><tspan x="0" y="0">Complex coordination retained at scale</tspan></text>
        </g>
      </g>
    </g>
  </g>
</svg>