<?xml version="1.0" encoding="utf-8" standalone="no"?>
<!DOCTYPE svg PUBLIC "-//W3C//DTD SVG 1.1//EN"
  "http://www.w3.org/Graphics/SVG/1.1/DTD/svg11.dtd">
<svg xmlns:xlink="http://www.w3.org/1999/xlink" width="85.03937pt" height="85.03937pt" viewBox="0 0 85.03937 85.03937" xmlns="http://www.w3.org/2000/svg" version="1.1">
 <metadata>
  <rdf:RDF xmlns:dc="http://purl.org/dc/elements/1.1/" xmlns:cc="http://creativecommons.org/ns#" xmlns:rdf="http://www.w3.org/1999/02/22-rdf-syntax-ns#">
   <cc:Work>
    <dc:type rdf:resource="http://purl.org/dc/dcmitype/StillImage"/>
    <dc:date>2026-08-05T12:53:39.040988</dc:date>
    <dc:format>image/svg+xml</dc:format>
    <dc:creator>
     <cc:Agent>
      <dc:title>Matplotlib v3.8.4, https://matplotlib.org/</dc:title>
     </cc:Agent>
    </dc:creator>
   </cc:Work>
  </rdf:RDF>
 </metadata>
 <defs>
  <style type="text/css">*{stroke-linejoin: round; stroke-linecap: butt}</style>
 </defs>
 <g id="figure_1">
  <g id="patch_1">
   <path d="M 0 85.03937 
L 85.03937 85.03937 
L 85.03937 0 
L 0 0 
L 0 85.03937 
z
" style="fill: none"/>
  </g>
  <g id="axes_1">
   <g id="patch_2">
    <path d="M 63.776807 33.719922 
L 42.519685 76.756462 
L 14.321462 36.190252 
z
" clip-path="url(#pa58ed1966f)" style="fill: #bfd8e8; opacity: 0.108974"/>
   </g>
   <g id="patch_3">
    <path d="M 63.776807 33.719922 
L 42.519685 10.754815 
L 14.321462 36.190252 
z
" clip-path="url(#pa58ed1966f)" style="fill: #bfd8e8; opacity: 0.120103"/>
   </g>
   <g id="patch_4">
    <path d="M 63.776807 33.719922 
L 42.519685 76.756462 
L 70.717909 51.321025 
z
" clip-path="url(#pa58ed1966f)" style="fill: #bfd8e8; opacity: 0.126564"/>
   </g>
   <g id="patch_5">
    <path d="M 42.519685 76.756462 
L 21.262563 53.791355 
L 14.321462 36.190252 
z
" clip-path="url(#pa58ed1966f)" style="fill: #bfd8e8; opacity: 0.132308"/>
   </g>
   <g id="patch_6">
    <path d="M 63.776807 33.719922 
L 42.519685 10.754815 
L 70.717909 51.321025 
z
" clip-path="url(#pa58ed1966f)" style="fill: #bfd8e8; opacity: 0.137692"/>
   </g>
   <g id="patch_7">
    <path d="M 42.519685 10.754815 
L 21.262563 53.791355 
L 14.321462 36.190252 
z
" clip-path="url(#pa58ed1966f)" style="fill: #bfd8e8; opacity: 0.143436"/>
   </g>
   <g id="patch_8">
    <path d="M 42.519685 76.756462 
L 21.262563 53.791355 
L 70.717909 51.321025 
z
" clip-path="url(#pa58ed1966f)" style="fill: #bfd8e8; opacity: 0.149897"/>
   </g>
   <g id="patch_9">
    <path d="M 42.519685 10.754815 
L 21.262563 53.791355 
L 70.717909 51.321025 
z
" clip-path="url(#pa58ed1966f)" style="fill: #bfd8e8; opacity: 0.161026"/>
   </g>
   <g id="line2d_1">
    <path d="M 42.519685 43.755639 
L 63.776807 33.719922 
" clip-path="url(#pa58ed1966f)" style="fill: none; stroke: #5d636a; stroke-opacity: 0.38; stroke-width: 0.72; stroke-linecap: round"/>
   </g>
   <g id="line2d_2">
    <path d="M 42.519685 43.755639 
L 14.321462 36.190252 
" clip-path="url(#pa58ed1966f)" style="fill: none; stroke: #5d636a; stroke-opacity: 0.407077; stroke-width: 0.72; stroke-linecap: round"/>
   </g>
   <g id="line2d_3">
    <path d="M 42.519685 43.755639 
L 42.519685 76.756462 
" clip-path="url(#pa58ed1966f)" style="fill: none; stroke: #5d636a; stroke-opacity: 0.437538; stroke-width: 0.72; stroke-linecap: round"/>
   </g>
   <g id="line2d_4">
    <path d="M 42.519685 43.755639 
L 42.519685 10.754815 
" clip-path="url(#pa58ed1966f)" style="fill: none; stroke: #5d636a; stroke-opacity: 0.542462; stroke-width: 0.72; stroke-linecap: round"/>
   </g>
   <g id="line2d_5">
    <path d="M 42.519685 43.755639 
L 70.717909 51.321025 
" clip-path="url(#pa58ed1966f)" style="fill: none; stroke: #5d636a; stroke-opacity: 0.572923; stroke-width: 0.72; stroke-linecap: round"/>
   </g>
   <g id="line2d_6">
    <path d="M 42.519685 43.755639 
L 21.262563 53.791355 
" clip-path="url(#pa58ed1966f)" style="fill: none; stroke: #5d636a; stroke-opacity: 0.6; stroke-width: 0.72; stroke-linecap: round"/>
   </g>
   <g id="line2d_7">
    <path d="M 63.776807 33.719922 
L 14.321462 36.190252 
" clip-path="url(#pa58ed1966f)" style="fill: none; stroke: #55788e; stroke-opacity: 0.42; stroke-width: 0.88; stroke-linecap: round"/>
   </g>
   <g id="line2d_8">
    <path d="M 42.519685 76.756462 
L 63.776807 33.719922 
" clip-path="url(#pa58ed1966f)" style="fill: none; stroke: #55788e; stroke-opacity: 0.453158; stroke-width: 0.88; stroke-linecap: round"/>
   </g>
   <g id="line2d_9">
    <path d="M 42.519685 76.756462 
L 14.321462 36.190252 
" clip-path="url(#pa58ed1966f)" style="fill: none; stroke: #55788e; stroke-opacity: 0.482632; stroke-width: 0.88; stroke-linecap: round"/>
   </g>
   <g id="line2d_10">
    <path d="M 63.776807 33.719922 
L 42.519685 10.754815 
" clip-path="url(#pa58ed1966f)" style="fill: none; stroke: #55788e; stroke-opacity: 0.567368; stroke-width: 0.88; stroke-linecap: round"/>
   </g>
   <g id="line2d_11">
    <path d="M 14.321462 36.190252 
L 42.519685 10.754815 
" clip-path="url(#pa58ed1966f)" style="fill: none; stroke: #55788e; stroke-opacity: 0.596842; stroke-width: 0.88; stroke-linecap: round"/>
   </g>
   <g id="line2d_12">
    <path d="M 70.717909 51.321025 
L 63.776807 33.719922 
" clip-path="url(#pa58ed1966f)" style="fill: none; stroke: #55788e; stroke-opacity: 0.600526; stroke-width: 0.88; stroke-linecap: round"/>
   </g>
   <g id="line2d_13">
    <path d="M 14.321462 36.190252 
L 21.262563 53.791355 
" clip-path="url(#pa58ed1966f)" style="fill: none; stroke: #55788e; stroke-opacity: 0.659474; stroke-width: 0.88; stroke-linecap: round"/>
   </g>
   <g id="line2d_14">
    <path d="M 42.519685 76.756462 
L 70.717909 51.321025 
" clip-path="url(#pa58ed1966f)" style="fill: none; stroke: #55788e; stroke-opacity: 0.663158; stroke-width: 0.88; stroke-linecap: round"/>
   </g>
   <g id="line2d_15">
    <path d="M 42.519685 76.756462 
L 21.262563 53.791355 
" clip-path="url(#pa58ed1966f)" style="fill: none; stroke: #55788e; stroke-opacity: 0.692632; stroke-width: 0.88; stroke-linecap: round"/>
   </g>
   <g id="line2d_16">
    <path d="M 70.717909 51.321025 
L 42.519685 10.754815 
" clip-path="url(#pa58ed1966f)" style="fill: none; stroke: #55788e; stroke-opacity: 0.777368; stroke-width: 0.88; stroke-linecap: round"/>
   </g>
   <g id="line2d_17">
    <path d="M 21.262563 53.791355 
L 42.519685 10.754815 
" clip-path="url(#pa58ed1966f)" style="fill: none; stroke: #55788e; stroke-opacity: 0.806842; stroke-width: 0.88; stroke-linecap: round"/>
   </g>
   <g id="line2d_18">
    <path d="M 70.717909 51.321025 
L 21.262563 53.791355 
" clip-path="url(#pa58ed1966f)" style="fill: none; stroke: #55788e; stroke-opacity: 0.84; stroke-width: 0.88; stroke-linecap: round"/>
   </g>
   <g id="PathCollection_1">
    <defs>
     <path id="meb9d9602dd" d="M 0 3.605551 
C 0.956203 3.605551 1.873372 3.225648 2.54951 2.54951 
C 3.225648 1.873372 3.605551 0.956203 3.605551 0 
C 3.605551 -0.956203 3.225648 -1.873372 2.54951 -2.54951 
C 1.873372 -3.225648 0.956203 -3.605551 0 -3.605551 
C -0.956203 -3.605551 -1.873372 -3.225648 -2.54951 -2.54951 
C -3.225648 -1.873372 -3.605551 -0.956203 -3.605551 0 
C -3.605551 0.956203 -3.225648 1.873372 -2.54951 2.54951 
C -1.873372 3.225648 -0.956203 3.605551 0 3.605551 
z
" style="stroke: #707983; stroke-width: 0.5"/>
    </defs>
    <g clip-path="url(#pa58ed1966f)">
     <use xlink:href="#meb9d9602dd" x="63.776807" y="33.719922" style="fill: #d6dadf; stroke: #707983; stroke-width: 0.5"/>
    </g>
   </g>
   <g id="PathCollection_2">
    <g clip-path="url(#pa58ed1966f)">
     <use xlink:href="#meb9d9602dd" x="14.321462" y="36.190252" style="fill: #d6dadf; stroke: #707983; stroke-width: 0.5"/>
    </g>
   </g>
   <g id="PathCollection_3">
    <g clip-path="url(#pa58ed1966f)">
     <use xlink:href="#meb9d9602dd" x="42.519685" y="76.756462" style="fill: #d6dadf; stroke: #707983; stroke-width: 0.5"/>
    </g>
   </g>
   <g id="PathCollection_4">
    <g clip-path="url(#pa58ed1966f)">
     <use xlink:href="#meb9d9602dd" x="42.519685" y="10.754815" style="fill: #d6dadf; stroke: #707983; stroke-width: 0.5"/>
    </g>
   </g>
   <g id="PathCollection_5">
    <g clip-path="url(#pa58ed1966f)">
     <use xlink:href="#meb9d9602dd" x="70.717909" y="51.321025" style="fill: #d6dadf; stroke: #707983; stroke-width: 0.5"/>
    </g>
   </g>
   <g id="PathCollection_6">
    <g clip-path="url(#pa58ed1966f)">
     <use xlink:href="#meb9d9602dd" x="21.262563" y="53.791355" style="fill: #d6dadf; stroke: #707983; stroke-width: 0.5"/>
    </g>
   </g>
   <g id="PathCollection_7">
    <defs>
     <path id="m9057b95236" d="M 0 5 
C 1.326016 5 2.597899 4.473168 3.535534 3.535534 
C 4.473168 2.597899 5 1.326016 5 0 
C 5 -1.326016 4.473168 -2.597899 3.535534 -3.535534 
C 2.597899 -4.473168 1.326016 -5 0 -5 
C -1.326016 -5 -2.597899 -4.473168 -3.535534 -3.535534 
C -4.473168 -2.597899 -5 -1.326016 -5 0 
C -5 1.326016 -4.473168 2.597899 -3.535534 3.535534 
C -2.597899 4.473168 -1.326016 5 0 5 
z
" style="stroke: #493461; stroke-width: 0.58"/>
    </defs>
    <g clip-path="url(#pa58ed1966f)">
     <use xlink:href="#m9057b95236" x="42.519685" y="43.755639" style="fill: #684a8e; stroke: #493461; stroke-width: 0.58"/>
    </g>
   </g>
   <g id="text_1">
    <text style="fill: #ffffff; font: 700 4.2px 'Arial', 'Helvetica', 'DejaVu Sans', sans-serif; text-anchor: middle" x="42.519685" y="44.985609" transform="rotate(-0 42.519685 44.985609)">M</text>
   </g>
  </g>
 </g>
 <defs>
  <clipPath id="pa58ed1966f">
   <rect x="0.850394" y="1.380088" width="83.338583" height="82.279194"/>
  </clipPath>
 </defs>
</svg>
